<svg width="1440" height="900" viewBox="0 0 1440 900" fill="none" xmlns="http://www.w3.org/2000/svg">
  <rect width="1440" height="900" rx="36" fill="#0B1020"/>
  <rect x="28" y="28" width="1384" height="844" rx="30" fill="url(#bg)"/>
  <rect x="68" y="88" width="300" height="724" rx="28" fill="#141B2D" stroke="rgba(255,255,255,0.08)"/>
  <rect x="400" y="88" width="972" height="92" rx="28" fill="#141B2D" stroke="rgba(255,255,255,0.08)"/>
  <rect x="400" y="206" width="972" height="180" rx="28" fill="#141B2D" stroke="rgba(255,255,255,0.08)"/>
  <rect x="400" y="412" width="972" height="66" rx="24" fill="#141B2D" stroke="rgba(255,255,255,0.08)"/>
  <rect x="400" y="502" width="972" height="144" rx="28" fill="#171F34"/>
  <rect x="400" y="668" width="972" height="144" rx="28" fill="#171F34"/>

  <rect x="96" y="124" width="60" height="60" rx="18" fill="#7C5CFF"/>
  <text x="180" y="153" fill="#F7F8FA" font-family="Arial, sans-serif" font-size="34" font-weight="700">LineUp</text>
  <text x="180" y="184" fill="#8D95A3" font-family="Arial, sans-serif" font-size="18">Keep the day clear</text>

  <rect x="96" y="244" width="244" height="58" rx="18" fill="#2A2257"/>
  <text x="126" y="280" fill="#CFC5FF" font-family="Arial, sans-serif" font-size="20" font-weight="600">All Tasks</text>
  <rect x="96" y="322" width="244" height="58" rx="18" fill="#1A2236"/>
  <text x="126" y="358" fill="#B6C0D2" font-family="Arial, sans-serif" font-size="20">Today</text>
  <rect x="96" y="400" width="244" height="58" rx="18" fill="#1A2236"/>
  <text x="126" y="436" fill="#B6C0D2" font-family="Arial, sans-serif" font-size="20">Completed</text>

  <text x="438" y="144" fill="#F7F8FA" font-family="Arial, sans-serif" font-size="30" font-weight="700">Focused planning</text>
  <rect x="1210" y="112" width="56" height="56" rx="18" fill="#7C5CFF"/>
  <text x="1228" y="149" fill="white" font-family="Arial, sans-serif" font-size="32" font-weight="700">+</text>
  <rect x="1286" y="112" width="56" height="56" rx="18" fill="#1A2236"/>
  <circle cx="1314" cy="140" r="12" fill="#F4C542"/>

  <text x="438" y="252" fill="#AAB3C5" font-family="Arial, sans-serif" font-size="20">What needs to be done?</text>
  <rect x="438" y="274" width="896" height="54" rx="16" fill="#1B2438"/>
  <rect x="438" y="340" width="420" height="30" rx="12" fill="#222C43"/>
  <rect x="878" y="340" width="180" height="30" rx="12" fill="#222C43"/>
  <rect x="1078" y="334" width="120" height="42" rx="14" fill="#2A2257"/>
  <rect x="1214" y="334" width="120" height="42" rx="14" fill="#7C5CFF"/>

  <text x="438" y="455" fill="#F7F8FA" font-family="Arial, sans-serif" font-size="24" font-weight="700">Smart suggestion</text>
  <text x="670" y="455" fill="#B6C0D2" font-family="Arial, sans-serif" font-size="19">2 overdue tasks need attention first.</text>

  <rect x="438" y="534" width="32" height="32" rx="16" fill="#7C5CFF"/>
  <path d="M447 550L455 558L462 543" stroke="white" stroke-width="4" stroke-linecap="round" stroke-linejoin="round"/>
  <text x="490" y="548" fill="#F7F8FA" font-family="Arial, sans-serif" font-size="26" font-weight="700">Finish landing page polish</text>
  <text x="490" y="584" fill="#AAB3C5" font-family="Arial, sans-serif" font-size="18">Refine spacing, task card hover states, and mobile composer layout.</text>
  <rect x="1156" y="528" width="92" height="34" rx="17" fill="#2A2257"/>
  <text x="1182" y="551" fill="#D6CEFF" font-family="Arial, sans-serif" font-size="16" font-weight="600">Pinned</text>
  <rect x="1258" y="528" width="86" height="34" rx="17" fill="#3C1F25"/>
  <text x="1286" y="551" fill="#FFC2C2" font-family="Arial, sans-serif" font-size="16" font-weight="600">Today</text>
  <rect x="490" y="602" width="88" height="30" rx="15" fill="#2A2257"/>
  <text x="516" y="622" fill="#D6CEFF" font-family="Arial, sans-serif" font-size="14">#Design</text>
  <rect x="590" y="602" width="72" height="30" rx="15" fill="#24314C"/>
  <text x="612" y="622" fill="#D6E0FF" font-family="Arial, sans-serif" font-size="14">High</text>

  <rect x="438" y="700" width="32" height="32" rx="16" fill="#1F2A40"/>
  <circle cx="454" cy="716" r="9" stroke="#7C5CFF" stroke-width="3"/>
  <text x="490" y="714" fill="#F7F8FA" font-family="Arial, sans-serif" font-size="26" font-weight="700">Plan portfolio case study copy</text>
  <text x="490" y="750" fill="#AAB3C5" font-family="Arial, sans-serif" font-size="18">Summarize the problem, workflow, and visual decisions behind LineUp.</text>
  <rect x="1228" y="694" width="116" height="34" rx="17" fill="#24314C"/>
  <text x="1250" y="717" fill="#D6E0FF" font-family="Arial, sans-serif" font-size="16" font-weight="600">Upcoming</text>

  <defs>
    <linearGradient id="bg" x1="28" y1="28" x2="1412" y2="872" gradientUnits="userSpaceOnUse">
      <stop stop-color="#101522"/>
      <stop offset="1" stop-color="#0D111B"/>
    </linearGradient>
  </defs>
</svg>