<svg width="720" height="900" viewBox="0 0 720 900" fill="none" xmlns="http://www.w3.org/2000/svg">
  <rect width="720" height="900" rx="36" fill="#0B1020"/>
  <rect x="196" y="40" width="328" height="820" rx="44" fill="#F7F8FA"/>
  <rect x="208" y="52" width="304" height="796" rx="36" fill="#121926"/>
  <rect x="320" y="68" width="80" height="10" rx="5" fill="#2A3144"/>
  <rect x="236" y="114" width="248" height="74" rx="24" fill="#171F34"/>
  <text x="258" y="150" fill="#F7F8FA" font-family="Arial, sans-serif" font-size="26" font-weight="700">What needs to be done?</text>
  <text x="258" y="173" fill="#8D95A3" font-family="Arial, sans-serif" font-size="15">Mobile composer</text>

  <rect x="236" y="214" width="248" height="58" rx="18" fill="#1B2438"/>
  <text x="256" y="250" fill="#AAB3C5" font-family="Arial, sans-serif" font-size="18">Write project README</text>

  <rect x="236" y="288" width="248" height="106" rx="18" fill="#1B2438"/>
  <text x="256" y="322" fill="#AAB3C5" font-family="Arial, sans-serif" font-size="16">Add screenshots, setup steps,</text>
  <text x="256" y="346" fill="#AAB3C5" font-family="Arial, sans-serif" font-size="16">and a polished app summary.</text>

  <rect x="236" y="410" width="118" height="54" rx="18" fill="#1B2438"/>
  <text x="258" y="444" fill="#D6E0FF" font-family="Arial, sans-serif" font-size="16">Apr 21</text>
  <rect x="366" y="410" width="118" height="54" rx="18" fill="#1B2438"/>
  <text x="394" y="444" fill="#D6E0FF" font-family="Arial, sans-serif" font-size="16">High</text>

  <rect x="236" y="484" width="248" height="54" rx="18" fill="#1B2438"/>
  <text x="258" y="518" fill="#D6E0FF" font-family="Arial, sans-serif" font-size="16">Tags: Docs, Portfolio</text>

  <rect x="236" y="568" width="114" height="50" rx="16" fill="#2A2257"/>
  <text x="264" y="600" fill="#D6CEFF" font-family="Arial, sans-serif" font-size="16" font-weight="600">Pinned</text>
  <rect x="370" y="568" width="114" height="50" rx="16" fill="#7C5CFF"/>
  <text x="394" y="600" fill="white" font-family="Arial, sans-serif" font-size="16" font-weight="700">Add Task</text>

  <rect x="236" y="650" width="248" height="132" rx="22" fill="#171F34"/>
  <text x="258" y="690" fill="#F7F8FA" font-family="Arial, sans-serif" font-size="22" font-weight="700">Quick capture</text>
  <text x="258" y="722" fill="#AAB3C5" font-family="Arial, sans-serif" font-size="16">Compose tasks without leaving the</text>
  <text x="258" y="746" fill="#AAB3C5" font-family="Arial, sans-serif" font-size="16">current mobile workflow.</text>
</svg>